<svg height="480pt" viewBox="-6 0 480 480" width="480pt" xmlns="http://www.w3.org/2000/svg"><path d="m7.855469 480h452.292969c4.417968 0 7.851562-4.023438 7.851562-8.441406v-171.492188c.035156-2.113281-.773438-4.152344-2.246094-5.667968-1.476562-1.515626-3.492187-2.378907-5.605468-2.398438h-73.148438v-283.558594c0-4.417968-3.453125-8.441406-7.871094-8.441406h-30c-4.527344.199219-8.101562 3.914062-8.128906 8.441406v21.558594h-124.808594c-3.199218.101562-6.050781 2.042969-7.316406 4.984375-1.265625 2.9375-.71875 6.34375 1.402344 8.738281l44.609375 48.984375-44.609375 48.957031c-2.132813 2.332032-2.683594 5.710938-1.402344 8.601563s4.152344 4.75 7.316406 4.734375h124.808594v137h-77c-4.429688.03125-8.003906 3.636719-8 8.066406v51.933594h-122c-4.429688.03125-8.003906 3.636719-8 8.066406v51.933594h-118.144531c-2.113281.019531-4.132813.882812-5.605469 2.398438-1.476562 1.515624-2.2851562 3.554687-2.25 5.667968v51.492188c0 4.417968 3.4375 8.441406 7.855469 8.441406zm226.453125-341 37.316406-40.890625c2.78125-3.128906 2.78125-7.847656 0-10.976563l-37.316406-41.132812h106.691406v93zm122.691406-123h14v276h-14zm-341 412h118c2.117188.015625 4.148438-.8125 5.652344-2.300781 1.5-1.492188 2.347656-3.515625 2.347656-5.632813v-52.066406h122c2.117188.015625 4.148438-.8125 5.652344-2.300781 1.5-1.492188 2.347656-3.515625 2.347656-5.632813v-52.066406h180v156h-436zm0 0"/></svg>