<?xml version="1.0" encoding="iso-8859-1"?>
<!-- Generator: Adobe Illustrator 19.0.0, SVG Export Plug-In . SVG Version: 6.00 Build 0)  -->
<svg version="1.1" id="Capa_1" xmlns="http://www.w3.org/2000/svg" xmlns:xlink="http://www.w3.org/1999/xlink" x="0px" y="0px"
	 viewBox="0 0 512 512" style="enable-background:new 0 0 512 512;" xml:space="preserve">
<g>
	<g>
		<path d="M476,372.09V346.5c0-43.285-35.215-78.5-78.5-78.5H312c-5.523,0-10,4.478-10,10c0,5.522,4.477,10,10,10h85.5
			c32.257,0,58.5,26.243,58.5,58.5v25.59c-20.067,1.294-36,18.022-36,38.41v12.877c-7.032-4.656-15.453-7.377-24.5-7.377h-279
			c-9.047,0-17.468,2.721-24.5,7.377V410.5c0-20.388-15.933-37.116-36-38.41V346.5c0-32.257,26.243-58.5,58.5-58.5H224
			c5.523,0,10-4.478,10-10c0-5.522-4.477-10-10-10h-61V160h48c5.523,0,10-4.478,10-10V30c0-5.522-4.477-10-10-10H55
			c-5.523,0-10,4.478-10,10v120c0,5.522,4.477,10,10,10h9v24.333c0,5.522,4.477,10,10,10s10-4.478,10-10V160h19v108.85
			c-37.852,5.582-67,38.271-67,77.65v25.59c-20.067,1.294-36,18.022-36,38.41V502c0,5.522,4.477,10,10,10h492
			c5.523,0,10-4.478,10-10v-91.5C512,390.112,496.067,373.384,476,372.09z M143,268h-20V160h20V268z M65,140V40h136v24H95
			c-5.523,0-10,4.478-10,10c0,5.522,4.477,10,10,10h106v56h-48h-40H65z M72,492H20v-81.5c0-10.201,8.299-18.5,18.5-18.5h15
			c10.201,0,18.5,8.299,18.5,18.5V492z M420,492H92v-31.5c0-13.51,10.991-24.5,24.5-24.5h279c13.509,0,24.5,10.99,24.5,24.5V492z
			 M492,492h-52v-81.5c0-10.201,8.299-18.5,18.5-18.5h15c10.201,0,18.5,8.299,18.5,18.5V492z"/>
	</g>
</g>
<g>
	<g>
		<path d="M277.07,270.93c-1.86-1.86-4.44-2.93-7.07-2.93s-5.21,1.069-7.07,2.93c-1.86,1.86-2.93,4.44-2.93,7.07
			s1.07,5.21,2.93,7.069c1.86,1.861,4.44,2.931,7.07,2.931s5.21-1.07,7.07-2.931c1.86-1.859,2.93-4.439,2.93-7.069
			S278.93,272.79,277.07,270.93z"/>
	</g>
</g>
<g>
	<g>
		<path d="M81.07,215.93C79.21,214.07,76.63,213,74,213s-5.21,1.069-7.07,2.93C65.07,217.79,64,220.37,64,223s1.07,5.21,2.93,7.069
			C68.79,231.93,71.37,233,74,233s5.21-1.07,7.07-2.931C82.93,228.21,84,225.63,84,223S82.93,217.79,81.07,215.93z"/>
	</g>
</g>
<g>
	<g>
		<path d="M142.04,344.93c-1.86-1.86-4.44-2.93-7.07-2.93s-5.21,1.069-7.07,2.93c-1.86,1.86-2.93,4.44-2.93,7.07
			s1.07,5.21,2.93,7.069c1.86,1.86,4.44,2.931,7.07,2.931s5.21-1.07,7.07-2.931c1.87-1.859,2.93-4.439,2.93-7.069
			S143.91,346.79,142.04,344.93z"/>
	</g>
</g>
<g>
	<g>
		<path d="M172.38,344.93c-1.86-1.86-4.44-2.93-7.07-2.93c-2.64,0-5.21,1.069-7.07,2.93c-1.87,1.86-2.93,4.44-2.93,7.07
			s1.06,5.21,2.93,7.069c1.85,1.86,4.43,2.931,7.07,2.931c2.63,0,5.21-1.07,7.07-2.931c1.86-1.859,2.93-4.439,2.93-7.069
			S174.24,346.79,172.38,344.93z"/>
	</g>
</g>
<g>
	<g>
		<path d="M202.71,344.93c-1.86-1.86-4.44-2.93-7.07-2.93s-5.21,1.069-7.07,2.93c-1.86,1.86-2.93,4.44-2.93,7.07
			s1.07,5.21,2.93,7.069c1.86,1.86,4.43,2.931,7.07,2.931c2.63,0,5.21-1.07,7.07-2.931c1.86-1.859,2.93-4.439,2.93-7.069
			S204.57,346.79,202.71,344.93z"/>
	</g>
</g>
<g>
	<g>
		<path d="M172.38,314.6c-1.86-1.87-4.44-2.93-7.07-2.93c-2.64,0-5.21,1.06-7.07,2.93c-1.87,1.86-2.93,4.431-2.93,7.07
			c0,2.63,1.06,5.21,2.93,7.07c1.86,1.859,4.43,2.93,7.07,2.93c2.63,0,5.2-1.07,7.07-2.93c1.86-1.87,2.93-4.44,2.93-7.07
			S174.24,316.46,172.38,314.6z"/>
	</g>
</g>
<g>
	<g>
		<path d="M172.38,375.26c-1.86-1.86-4.44-2.93-7.07-2.93c-2.64,0-5.21,1.069-7.07,2.93c-1.87,1.86-2.93,4.44-2.93,7.07
			s1.06,5.21,2.93,7.069c1.86,1.87,4.43,2.931,7.07,2.931c2.63,0,5.21-1.061,7.07-2.931c1.86-1.859,2.93-4.439,2.93-7.069
			S174.24,377.12,172.38,375.26z"/>
	</g>
</g>
<g>
	<g>
		<path d="M303.74,344.93c-1.86-1.86-4.44-2.93-7.07-2.93c-2.64,0-5.21,1.069-7.08,2.93c-1.86,1.86-2.92,4.44-2.92,7.07
			s1.06,5.21,2.92,7.069c1.87,1.861,4.44,2.931,7.08,2.931c2.63,0,5.21-1.07,7.07-2.931c1.86-1.859,2.93-4.439,2.93-7.069
			S305.6,346.79,303.74,344.93z"/>
	</g>
</g>
<g>
	<g>
		<path d="M334.07,344.93c-1.86-1.86-4.44-2.93-7.07-2.93s-5.21,1.069-7.07,2.93c-1.86,1.86-2.93,4.44-2.93,7.07
			s1.07,5.21,2.93,7.069c1.86,1.86,4.44,2.931,7.07,2.931s5.21-1.07,7.07-2.931c1.86-1.859,2.93-4.439,2.93-7.069
			S335.93,346.79,334.07,344.93z"/>
	</g>
</g>
<g>
	<g>
		<path d="M364.41,344.93c-1.87-1.86-4.44-2.93-7.08-2.93c-2.63,0-5.21,1.069-7.07,2.93c-1.86,1.861-2.93,4.44-2.93,7.07
			s1.07,5.21,2.93,7.069c1.86,1.86,4.44,2.931,7.07,2.931c2.64,0,5.21-1.07,7.08-2.931c1.86-1.859,2.92-4.439,2.92-7.069
			S366.27,346.79,364.41,344.93z"/>
	</g>
</g>
<g>
	<g>
		<path d="M334.07,314.6c-1.86-1.87-4.44-2.93-7.07-2.93s-5.21,1.06-7.07,2.93c-1.86,1.86-2.93,4.431-2.93,7.07
			c0,2.63,1.07,5.21,2.93,7.07c1.86,1.86,4.44,2.93,7.07,2.93s5.21-1.07,7.07-2.93s2.93-4.44,2.93-7.07
			C337,319.03,335.93,316.46,334.07,314.6z"/>
	</g>
</g>
<g>
	<g>
		<path d="M334.07,375.26c-1.86-1.86-4.44-2.93-7.07-2.93s-5.21,1.069-7.07,2.93c-1.86,1.86-2.93,4.44-2.93,7.07
			s1.07,5.21,2.93,7.069c1.86,1.87,4.44,2.931,7.07,2.931s5.21-1.061,7.07-2.931c1.86-1.859,2.93-4.439,2.93-7.069
			S335.93,377.12,334.07,375.26z"/>
	</g>
</g>
<g>
	<g>
		<path d="M502,0H310c-5.523,0-10,4.478-10,10v128c0,5.522,4.477,10,10,10h192c5.523,0,10-4.478,10-10V10C512,4.478,507.523,0,502,0
			z M492,128H334.917l32.184-32.185l16.099,16.099c3.905,3.904,10.237,3.904,14.143,0l47.445-47.445L492,111.682V128z M492,83.397
			l-40.142-40.142c-1.875-1.875-4.419-2.929-7.071-2.929c-2.652,0-5.196,1.054-7.071,2.929L390.271,90.7l-16.099-16.099
			c-1.875-1.875-4.419-2.929-7.071-2.929c-2.652,0-5.196,1.054-7.071,2.929L320,114.632V20h172V83.397z"/>
	</g>
</g>
<g>
	<g>
		<path d="M391.071,45.928c-3.905-3.904-10.237-3.904-14.143,0l-0.25,0.25c-3.905,3.905-3.905,10.237,0,14.143
			c1.953,1.952,4.513,2.929,7.072,2.929c2.559,0,5.119-0.977,7.071-2.929l0.25-0.25C394.976,56.166,394.976,49.834,391.071,45.928z"
			/>
	</g>
</g>
<g>
</g>
<g>
</g>
<g>
</g>
<g>
</g>
<g>
</g>
<g>
</g>
<g>
</g>
<g>
</g>
<g>
</g>
<g>
</g>
<g>
</g>
<g>
</g>
<g>
</g>
<g>
</g>
<g>
</g>
</svg>
